<svg width="132" height="40" viewBox="0 0 132 40" fill="none" xmlns="http://www.w3.org/2000/svg">
<path d="M4.68686 14.0698C4.68686 7.87626 9.14622 3.87109 15.9591 3.87109C21.8223 3.87109 26.4056 7.91754 26.612 13.2853H20.1294C19.8817 11.0556 18.1475 9.65174 15.6288 9.65174C12.7385 9.65174 11.0869 10.8904 11.0869 13.1201C11.0869 14.8543 12.0365 15.8866 14.1423 16.5059L18.4778 17.7859C22.9785 19.1485 25.1256 21.6672 25.1256 25.6724C25.1256 31.6182 20.6249 35.5408 13.7294 35.5408C7.0817 35.5408 2.78751 31.9485 2.58105 26.1266H9.06364C9.18751 28.3975 11.0456 29.7601 14.0185 29.7601C16.9914 29.7601 18.7669 28.4801 18.7669 26.333C18.7669 24.8053 18.0649 24.0621 16.1243 23.484L11.6649 22.204C7.20557 20.924 4.68686 17.9924 4.68686 14.0698Z" fill="#FF7037"/>
<path d="M33.9494 11.0556C32.2152 11.0556 30.9765 9.77561 30.9765 8.08271C30.9765 5.93561 32.9172 3.99496 35.1056 3.99496C36.8398 3.99496 38.0785 5.27496 38.0785 6.96787C38.0785 9.07367 36.0965 11.0556 33.9494 11.0556ZM27.1365 35.004L30.3985 14.3588H36.5507L33.2888 35.004H27.1365Z" fill="#FF7037"/>
<path d="M48.0159 35.004H41.6572V19.644H37.7346V14.3588H41.6572V7.95883H48.0159V14.3588H51.9385V19.644H48.0159V35.004Z" fill="white"/>
<path d="M63.9433 35.004H57.5846V19.644H53.662V14.3588H57.5846V7.95883H63.9433V14.3588H67.8659V19.644H63.9433V35.004Z" fill="white"/>
<path d="M80.1014 35.5408C73.8665 35.5408 69.4072 30.9988 69.4072 24.6401C69.4072 18.1988 73.7427 13.6982 79.9775 13.6982C86.4601 13.6982 90.5065 17.9511 90.5065 24.6814V26.2917L75.5182 26.3743C75.8898 29.0995 77.4175 30.3795 80.2252 30.3795C82.6201 30.3795 84.313 29.5124 84.7672 28.0259H90.5891C89.8459 32.6092 85.7581 35.5408 80.1014 35.5408ZM80.0188 18.8595C77.5001 18.8595 76.0962 19.9743 75.6007 22.4517H84.1891C84.1891 20.2634 82.5788 18.8595 80.0188 18.8595Z" fill="white"/>
<path d="M108.476 14.3588V20.3459H106.453C102.819 20.3459 100.631 21.9563 100.631 26.044V35.004H94.272V14.4001H100.259L100.589 17.4556C101.457 15.4324 103.273 14.0698 106.04 14.0698C106.783 14.0698 107.609 14.1524 108.476 14.3588Z" fill="white"/>
<path d="M120.645 3.87109L122.884 7.92501L127.371 7.19343L125.677 11.517L129.032 14.6586L124.68 15.9961L124.378 20.6453L120.645 17.9895L116.912 20.6453L116.609 15.9961L112.258 14.6586L115.613 11.517L113.919 7.19343L118.405 7.92501L120.645 3.87109Z" fill="#1CCD83"/>
</svg>
