<svg width="104" height="104" viewBox="0 0 104 104" fill="none" xmlns="http://www.w3.org/2000/svg">
<path d="M68.0781 55.0769C72.3265 51.7344 75.4274 47.1509 76.9495 41.964C78.4716 36.7771 78.3391 31.2447 76.5705 26.1366C74.802 21.0285 71.4852 16.5986 67.0818 13.4633C62.6783 10.3279 57.4071 8.64307 52.0015 8.64307C46.5958 8.64307 41.3246 10.3279 36.9211 13.4633C32.5177 16.5986 29.2009 21.0285 27.4324 26.1366C25.6638 31.2447 25.5313 36.7771 27.0534 41.964C28.5755 47.1509 31.6764 51.7344 35.9248 55.0769C28.6451 57.9934 22.2934 62.8307 17.5467 69.0732C12.7999 75.3156 9.83622 82.7292 8.97145 90.5235C8.90885 91.0926 8.95896 91.6684 9.11889 92.2181C9.27883 92.7678 9.54548 93.2806 9.9036 93.7273C10.6269 94.6293 11.6788 95.2071 12.8281 95.3335C13.9774 95.46 15.1298 95.1247 16.0319 94.4014C16.9339 93.6781 17.5117 92.6262 17.6381 91.4769C18.5897 83.0061 22.6288 75.1827 28.9837 69.5016C35.3387 63.8206 43.564 60.68 52.0881 60.68C60.6122 60.68 68.8375 63.8206 75.1925 69.5016C81.5475 75.1827 85.5866 83.0061 86.5381 91.4769C86.6559 92.5417 87.164 93.5251 87.9642 94.2373C88.7645 94.9495 89.8002 95.34 90.8714 95.3335H91.3481C92.484 95.2029 93.5223 94.6285 94.2365 93.7356C94.9508 92.8428 95.2833 91.7038 95.1614 90.5669C94.2926 82.7504 91.3129 75.3178 86.5418 69.0658C81.7707 62.8137 75.3881 57.978 68.0781 55.0769ZM52.0015 52.0002C48.5732 52.0002 45.222 50.9836 42.3716 49.079C39.5211 47.1744 37.2995 44.4673 35.9875 41.3001C34.6756 38.1328 34.3324 34.6477 35.0012 31.2853C35.67 27.923 37.3208 24.8345 39.7449 22.4104C42.169 19.9863 45.2576 18.3354 48.6199 17.6666C51.9822 16.9978 55.4674 17.3411 58.6346 18.653C61.8019 19.9649 64.509 22.1865 66.4136 25.037C68.3182 27.8874 69.3348 31.2387 69.3348 34.6669C69.3348 39.264 67.5086 43.6728 64.258 46.9234C61.0073 50.174 56.5985 52.0002 52.0015 52.0002Z" fill="white"/>
</svg>
