<svg width="52" height="49" viewBox="0 0 52 49" fill="none" xmlns="http://www.w3.org/2000/svg">
<path d="M22.5728 2.69488C24.1274 0.111603 27.8726 0.111604 29.4272 2.69488L35.001 11.9566C35.5595 12.8846 36.4705 13.5465 37.5257 13.7909L48.0565 16.2298C50.9937 16.9101 52.151 20.472 50.1746 22.7488L43.0886 30.9118C42.3786 31.7297 42.0306 32.8007 42.1243 33.8798L43.0589 44.6488C43.3196 47.6525 40.2896 49.8538 37.5135 48.6777L27.5604 44.461C26.563 44.0385 25.437 44.0385 24.4396 44.461L14.4865 48.6777C11.7104 49.8538 8.68044 47.6525 8.94112 44.6488L9.87573 33.8798C9.96938 32.8007 9.62141 31.7297 8.91138 30.9118L1.82539 22.7488C-0.151049 20.472 1.00628 16.9101 3.94353 16.2298L14.4743 13.7909C15.5295 13.5465 16.4405 12.8846 16.999 11.9566L22.5728 2.69488Z" fill="#DCDFED"/>
</svg>
