<svg width="16" height="16" viewBox="0 0 16 16" fill="none" xmlns="http://www.w3.org/2000/svg">
<path fill-rule="evenodd" clip-rule="evenodd" d="M14.4016 7.99961C14.4016 11.5342 11.5362 14.3996 8.00156 14.3996C4.46694 14.3996 1.60156 11.5342 1.60156 7.99961C1.60156 4.46499 4.46694 1.59961 8.00156 1.59961C11.5362 1.59961 14.4016 4.46499 14.4016 7.99961ZM8.80156 11.1996C8.80156 11.6414 8.44339 11.9996 8.00156 11.9996C7.55974 11.9996 7.20156 11.6414 7.20156 11.1996C7.20156 10.7578 7.55974 10.3996 8.00156 10.3996C8.44339 10.3996 8.80156 10.7578 8.80156 11.1996ZM8.00156 3.99961C7.55974 3.99961 7.20156 4.35778 7.20156 4.79961V7.99961C7.20156 8.44144 7.55974 8.79961 8.00156 8.79961C8.44339 8.79961 8.80156 8.44144 8.80156 7.99961V4.79961C8.80156 4.35778 8.44339 3.99961 8.00156 3.99961Z" fill="#EA1010"/>
</svg>
