<svg width="20" height="20" viewBox="0 0 20 20" fill="none" xmlns="http://www.w3.org/2000/svg">
<path d="M13.7085 10.71C14.6889 9.93866 15.4045 8.88092 15.7558 7.68394C16.107 6.48697 16.0765 5.21027 15.6683 4.03147C15.2602 2.85267 14.4948 1.83039 13.4786 1.10686C12.4624 0.383322 11.246 -0.00549316 9.99853 -0.00549316C8.75108 -0.00549316 7.53465 0.383322 6.51846 1.10686C5.50228 1.83039 4.73688 2.85267 4.32874 4.03147C3.92061 5.21027 3.89004 6.48697 4.24129 7.68394C4.59254 8.88092 5.30814 9.93866 6.28853 10.71C4.60861 11.383 3.14282 12.4994 2.04742 13.9399C0.95203 15.3805 0.268095 17.0913 0.0685318 18.89C0.0540864 19.0213 0.0656484 19.1542 0.102557 19.2811C0.139466 19.4079 0.200999 19.5263 0.283643 19.6293C0.450551 19.8375 0.693315 19.9708 0.958532 20C1.22375 20.0292 1.48969 19.9518 1.69786 19.7849C1.90602 19.618 2.03936 19.3752 2.06853 19.11C2.28812 17.1552 3.22022 15.3498 4.68675 14.0388C6.15328 12.7278 8.05143 12.003 10.0185 12.003C11.9856 12.003 13.8838 12.7278 15.3503 14.0388C16.8168 15.3498 17.7489 17.1552 17.9685 19.11C17.9957 19.3557 18.113 19.5827 18.2976 19.747C18.4823 19.9114 18.7213 20.0015 18.9685 20H19.0785C19.3407 19.9698 19.5803 19.8373 19.7451 19.6313C19.9099 19.4252 19.9866 19.1624 19.9585 18.9C19.758 17.0962 19.0704 15.381 17.9694 13.9382C16.8684 12.4954 15.3954 11.3795 13.7085 10.71ZM9.99853 10C9.20741 10 8.43405 9.76541 7.77625 9.32588C7.11845 8.88636 6.60576 8.26164 6.30301 7.53074C6.00026 6.79983 5.92105 5.99557 6.07539 5.21964C6.22973 4.44372 6.61069 3.73099 7.1701 3.17158C7.72951 2.61217 8.44225 2.2312 9.21817 2.07686C9.99409 1.92252 10.7984 2.00173 11.5293 2.30448C12.2602 2.60724 12.8849 3.11993 13.3244 3.77772C13.7639 4.43552 13.9985 5.20888 13.9985 6C13.9985 7.06087 13.5771 8.07828 12.827 8.82843C12.0768 9.57858 11.0594 10 9.99853 10Z" fill="#AEB1C4"/>
</svg>
