<svg width="18" height="18" viewBox="0 0 18 18" fill="none" xmlns="http://www.w3.org/2000/svg">
<path d="M14.8332 5.66699H13.9998V3.16699C13.9998 2.50395 13.7364 1.86807 13.2676 1.39923C12.7988 0.930384 12.1629 0.666992 11.4998 0.666992H3.1665C2.50346 0.666992 1.86758 0.930384 1.39874 1.39923C0.929896 1.86807 0.666504 2.50395 0.666504 3.16699V13.167C0.667325 13.3315 0.716827 13.4921 0.808771 13.6285C0.900716 13.765 1.03099 13.8711 1.18317 13.9337C1.28207 13.9803 1.39052 14.0031 1.49984 14.0003C1.60951 14.001 1.71823 13.9799 1.81976 13.9385C1.92129 13.897 2.01364 13.8359 2.0915 13.7587L4.43317 11.4087H5.6665V12.6087C5.6665 13.2717 5.9299 13.9076 6.39874 14.3764C6.86758 14.8453 7.50346 15.1087 8.1665 15.1087H13.9332L15.9082 17.092C15.986 17.1692 16.0784 17.2303 16.1799 17.2718C16.2814 17.3133 16.3902 17.3343 16.4998 17.3337C16.6092 17.3365 16.7176 17.3136 16.8165 17.267C16.9687 17.2045 17.099 17.0983 17.1909 16.9619C17.2828 16.8254 17.3323 16.6648 17.3332 16.5003V8.16699C17.3332 7.50395 17.0698 6.86807 16.6009 6.39922C16.1321 5.93038 15.4962 5.66699 14.8332 5.66699ZM5.6665 8.16699V9.74199H4.0915C3.98183 9.74136 3.87311 9.76238 3.77158 9.80385C3.67005 9.84532 3.5777 9.90642 3.49984 9.98366L2.33317 11.1587V3.16699C2.33317 2.94598 2.42097 2.73402 2.57725 2.57774C2.73353 2.42146 2.94549 2.33366 3.1665 2.33366H11.4998C11.7209 2.33366 11.9328 2.42146 12.0891 2.57774C12.2454 2.73402 12.3332 2.94598 12.3332 3.16699V5.66699H8.1665C7.50346 5.66699 6.86758 5.93038 6.39874 6.39922C5.9299 6.86807 5.6665 7.50395 5.6665 8.16699ZM15.6665 14.492L14.8332 13.6587C14.756 13.5799 14.664 13.5173 14.5624 13.4744C14.4608 13.4314 14.3518 13.4091 14.2415 13.4087H8.1665C7.94549 13.4087 7.73353 13.3209 7.57725 13.1646C7.42097 13.0083 7.33317 12.7963 7.33317 12.5753V8.16699C7.33317 7.94598 7.42097 7.73402 7.57725 7.57774C7.73353 7.42146 7.94549 7.33366 8.1665 7.33366H14.8332C15.0542 7.33366 15.2661 7.42146 15.4224 7.57774C15.5787 7.73402 15.6665 7.94598 15.6665 8.16699V14.492Z" fill="#7B7E8F"/>
</svg>
