<svg width="20" height="20" viewBox="0 0 20 20" fill="none" xmlns="http://www.w3.org/2000/svg">
<path fill-rule="evenodd" clip-rule="evenodd" d="M9.73132 4.75C9.62573 4.75 9.54014 4.84402 9.54014 4.96V5.89644H7.44118C7.33559 5.89644 7.25 5.99047 7.25 6.10644L7.25 13.8936C7.25 14.0095 7.33559 14.1036 7.44118 14.1036H9.54014V15.04C9.54014 15.156 9.62573 15.25 9.73132 15.25H10.5406C10.6462 15.25 10.7318 15.156 10.7318 15.04V14.1036H11.2793C11.7245 14.1036 12.137 14.0111 12.5139 13.8233C12.8936 13.6342 13.1984 13.358 13.4179 12.9903C13.6423 12.6204 13.75 12.1969 13.75 11.7213C13.75 11.1857 13.6297 10.7311 13.3706 10.3781C13.1977 10.1426 12.9705 9.96268 12.6956 9.834C12.8649 9.70411 13.0134 9.5457 13.1376 9.35716C13.3575 9.02349 13.4673 8.63432 13.4673 8.1915C13.4673 7.46389 13.2663 6.87856 12.8384 6.4765C12.4167 6.0803 11.8212 5.89644 11.0814 5.89644L10.7318 5.89644V4.96C10.7318 4.84402 10.6462 4.75 10.5406 4.75H9.73132ZM8.5477 9.32907L8.5477 7.05392H9.54014L9.54014 9.32907H8.5477ZM10.7318 9.32907L10.7318 7.05392L10.9188 7.05392C11.4113 7.05392 11.723 7.15936 11.8976 7.32239C12.0632 7.47697 12.1696 7.75558 12.1696 8.21496C12.1696 8.60144 12.0658 8.86912 11.8873 9.04364C11.7047 9.22214 11.4214 9.32907 11.0107 9.32907H10.7318ZM8.5477 12.9494V10.4832H9.54014V12.9494H8.5477ZM10.7318 12.9494V10.4832H10.9541C11.5178 10.4832 11.8936 10.592 12.1214 10.7718C12.3269 10.9366 12.4523 11.2254 12.4523 11.6979C12.4523 12.1937 12.3302 12.4923 12.1344 12.6579C11.9168 12.8423 11.5771 12.9494 11.0814 12.9494H10.7318Z" fill="#454754"/>
<path fill-rule="evenodd" clip-rule="evenodd" d="M20 10C20 15.5228 15.5228 20 10 20C4.47715 20 0 15.5228 0 10C0 4.47715 4.47715 0 10 0C15.5228 0 20 4.47715 20 10ZM18 10C18 14.4183 14.4183 18 10 18C5.58172 18 2 14.4183 2 10C2 5.58172 5.58172 2 10 2C14.4183 2 18 5.58172 18 10Z" fill="#454754"/>
</svg>
