<svg width="76" height="88" viewBox="0 0 76 88" fill="none" xmlns="http://www.w3.org/2000/svg">
<g filter="url(#filter0_d_62_485)">
<path d="M37 7.33334C29.2203 7.33334 21.7592 10.4238 16.2582 15.9249C10.7571 21.4259 7.66663 28.887 7.66663 36.6667C7.66663 56.4667 33.5166 78.8333 34.6166 79.7867C35.2808 80.3548 36.126 80.6669 37 80.6669C37.8739 80.6669 38.7191 80.3548 39.3833 79.7867C40.6666 78.8333 66.3333 56.4667 66.3333 36.6667C66.3333 28.887 63.2428 21.4259 57.7418 15.9249C52.2407 10.4238 44.7796 7.33334 37 7.33334Z" fill="white"/>
<path d="M36.9996 7.83334C44.6467 7.83334 51.981 10.8714 57.3883 16.2787C62.7954 21.6859 65.8335 29.0195 65.8336 36.6664C65.8336 46.3815 59.5185 56.8054 52.9498 64.9808C46.3964 73.1371 39.6904 78.9355 39.0856 79.3851L39.0709 79.3958L39.0582 79.4066C38.4846 79.8972 37.7544 80.1673 36.9996 80.1673C36.3393 80.1673 35.6979 79.9606 35.1637 79.5804L34.942 79.4066C34.3836 78.9227 27.6818 73.1207 21.1188 64.9808C14.5264 56.8044 8.16663 46.3805 8.16663 36.6664C8.16671 29.0194 11.2047 21.6859 16.6119 16.2787C22.0192 10.8714 29.3527 7.83343 36.9996 7.83334Z" stroke="white"/>
</g>
<defs>
<filter id="filter0_d_62_485" x="0.666626" y="0.333344" width="74.6666" height="89.3336" filterUnits="userSpaceOnUse" color-interpolation-filters="sRGB">
<feFlood flood-opacity="0" result="BackgroundImageFix"/>
<feColorMatrix in="SourceAlpha" type="matrix" values="0 0 0 0 0 0 0 0 0 0 0 0 0 0 0 0 0 0 127 0" result="hardAlpha"/>
<feOffset dx="1" dy="1"/>
<feGaussianBlur stdDeviation="4"/>
<feComposite in2="hardAlpha" operator="out"/>
<feColorMatrix type="matrix" values="0 0 0 0 0 0 0 0 0 0 0 0 0 0 0 0 0 0 0.24 0"/>
<feBlend mode="normal" in2="BackgroundImageFix" result="effect1_dropShadow_62_485"/>
<feBlend mode="normal" in="SourceGraphic" in2="effect1_dropShadow_62_485" result="shape"/>
</filter>
</defs>
</svg>
