<svg width="40" height="40" viewBox="0 0 40 40" fill="none" xmlns="http://www.w3.org/2000/svg">
<path d="M20 0C16.0444 0 12.1776 1.17298 8.8886 3.37061C5.59962 5.56824 3.03617 8.69181 1.52242 12.3463C0.00866568 16.0009 -0.387401 20.0222 0.384303 23.9018C1.15601 27.7814 3.06082 31.3451 5.85787 34.1421C8.65492 36.9392 12.2186 38.844 16.0982 39.6157C19.9778 40.3874 23.9992 39.9913 27.6537 38.4776C31.3082 36.9638 34.4318 34.4004 36.6294 31.1114C38.827 27.8224 40 23.9556 40 20C40 17.3736 39.4827 14.7728 38.4776 12.3463C37.4725 9.91982 35.9993 7.71504 34.1421 5.85786C32.285 4.00069 30.0802 2.5275 27.6537 1.52241C25.2272 0.517315 22.6264 0 20 0ZM20 36C16.8355 36 13.7421 35.0616 11.1109 33.3035C8.4797 31.5454 6.42894 29.0466 5.21794 26.1229C4.00694 23.1993 3.69008 19.9823 4.30745 16.8786C4.92481 13.7749 6.44866 10.9239 8.6863 8.68629C10.9239 6.44865 13.7749 4.9248 16.8786 4.30744C19.9823 3.69007 23.1993 4.00693 26.1229 5.21793C29.0466 6.42893 31.5454 8.47969 33.3035 11.1109C35.0616 13.7421 36 16.8355 36 20C36 24.2435 34.3143 28.3131 31.3137 31.3137C28.3131 34.3143 24.2435 36 20 36ZM28 18H22V12C22 11.4696 21.7893 10.9609 21.4142 10.5858C21.0392 10.2107 20.5304 10 20 10C19.4696 10 18.9609 10.2107 18.5858 10.5858C18.2107 10.9609 18 11.4696 18 12V18H12C11.4696 18 10.9609 18.2107 10.5858 18.5858C10.2107 18.9609 10 19.4696 10 20C10 20.5304 10.2107 21.0391 10.5858 21.4142C10.9609 21.7893 11.4696 22 12 22H18V28C18 28.5304 18.2107 29.0391 18.5858 29.4142C18.9609 29.7893 19.4696 30 20 30C20.5304 30 21.0392 29.7893 21.4142 29.4142C21.7893 29.0391 22 28.5304 22 28V22H28C28.5304 22 29.0392 21.7893 29.4142 21.4142C29.7893 21.0391 30 20.5304 30 20C30 19.4696 29.7893 18.9609 29.4142 18.5858C29.0392 18.2107 28.5304 18 28 18Z" fill="#FF7037"/>
</svg>
