<svg width="132" height="40" viewBox="0 0 132 40" fill="none" xmlns="http://www.w3.org/2000/svg">
<path d="M4.68637 14.0696C4.68637 7.87601 9.14573 3.87085 15.9586 3.87085C21.8219 3.87085 26.4051 7.9173 26.6115 13.285H20.129C19.8812 11.0554 18.147 9.65149 15.6283 9.65149C12.738 9.65149 11.0864 10.8902 11.0864 13.1199C11.0864 14.8541 12.0361 15.8863 14.1419 16.5057L18.4773 17.7857C22.978 19.1483 25.1251 21.667 25.1251 25.6721C25.1251 31.6179 20.6244 35.5405 13.729 35.5405C7.08121 35.5405 2.78702 31.9483 2.58057 26.1263H9.06315C9.18702 28.3973 11.0451 29.7599 14.018 29.7599C16.9909 29.7599 18.7664 28.4799 18.7664 26.3328C18.7664 24.805 18.0644 24.0618 16.1238 23.4838L11.6644 22.2038C7.20508 20.9238 4.68637 17.9921 4.68637 14.0696Z" fill="#FF7037"/>
<path d="M33.949 11.0554C32.2148 11.0554 30.976 9.77537 30.976 8.08246C30.976 5.93536 32.9167 3.99472 35.1051 3.99472C36.8393 3.99472 38.078 5.27472 38.078 6.96762C38.078 9.07343 36.0961 11.0554 33.949 11.0554ZM27.136 35.0038L30.398 14.3586H36.5502L33.2883 35.0038H27.136Z" fill="#FF7037"/>
<path d="M48.0154 35.0038H41.6567V19.6438H37.7341V14.3586H41.6567V7.95859H48.0154V14.3586H51.938V19.6438H48.0154V35.0038Z" fill="black"/>
<path d="M63.9428 35.0038H57.5841V19.6438H53.6615V14.3586H57.5841V7.95859H63.9428V14.3586H67.8654V19.6438H63.9428V35.0038Z" fill="black"/>
<path d="M80.1009 35.5405C73.866 35.5405 69.4067 30.9986 69.4067 24.6399C69.4067 18.1986 73.7422 13.6979 79.977 13.6979C86.4596 13.6979 90.5061 17.9508 90.5061 24.6812V26.2915L75.5177 26.3741C75.8893 29.0992 77.417 30.3792 80.2248 30.3792C82.6196 30.3792 84.3125 29.5121 84.7667 28.0257H90.5886C89.8454 32.6089 85.7577 35.5405 80.1009 35.5405ZM80.0183 18.8592C77.4996 18.8592 76.0957 19.9741 75.6002 22.4515H84.1886C84.1886 20.2631 82.5783 18.8592 80.0183 18.8592Z" fill="black"/>
<path d="M108.475 14.3586V20.3457H106.452C102.819 20.3457 100.63 21.956 100.63 26.0438V35.0038H94.2715V14.3999H100.259L100.589 17.4554C101.456 15.4321 103.273 14.0696 106.039 14.0696C106.782 14.0696 107.608 14.1521 108.475 14.3586Z" fill="black"/>
<path d="M120.645 3.87085L122.885 7.92477L127.371 7.19318L125.678 11.5168L129.032 14.6584L124.681 15.9959L124.378 20.645L120.645 17.9893L116.913 20.645L116.61 15.9959L112.258 14.6584L115.613 11.5168L113.919 7.19318L118.406 7.92477L120.645 3.87085Z" fill="#1CCD83"/>
</svg>
