<svg width="212" height="64" viewBox="0 0 212 64" fill="none" xmlns="http://www.w3.org/2000/svg">
<path d="M8.20767 22.5113C8.20767 12.6016 15.3426 6.19336 26.2433 6.19336C35.6245 6.19336 42.9576 12.6677 43.288 21.2561H32.9158C32.5194 17.6886 29.7447 15.4424 25.7148 15.4424C21.0903 15.4424 18.4477 17.4243 18.4477 20.9918C18.4477 23.7665 19.9672 25.4181 23.3365 26.4091L30.2732 28.4571C37.4743 30.6372 40.9096 34.6672 40.9096 41.0755C40.9096 50.5887 33.7086 56.8649 22.6758 56.8649C12.0394 56.8649 5.1687 51.1173 4.83838 41.8022H15.2105C15.4087 45.4357 18.3816 47.6158 23.1383 47.6158C27.8949 47.6158 30.7357 45.5678 30.7357 42.1325C30.7357 39.6881 29.6126 38.4989 26.5076 37.574L19.3726 35.526C12.2376 33.478 8.20767 28.7874 8.20767 22.5113Z" fill="#FF7037"/>
<path d="M55.0278 17.6886C52.2531 17.6886 50.2712 15.6406 50.2712 12.9319C50.2712 9.49658 53.3762 6.39155 56.8776 6.39155C59.6524 6.39155 61.6343 8.43955 61.6343 11.1482C61.6343 14.5175 58.4632 17.6886 55.0278 17.6886ZM44.1272 56.006L49.3463 22.9738H59.1899L53.9708 56.006H44.1272Z" fill="#FF7037"/>
<path d="M77.5342 56.006H67.3602V31.43H61.0841V22.9738H67.3602V12.7337H77.5342V22.9738H83.8103V31.43H77.5342V56.006Z" fill="white"/>
<path d="M103.018 56.006H92.8441V31.43H86.568V22.9738H92.8441V12.7337H103.018V22.9738H109.294V31.43H103.018V56.006Z" fill="white"/>
<path d="M128.871 56.8649C118.895 56.8649 111.76 49.5978 111.76 39.4238C111.76 29.1178 118.697 21.9167 128.673 21.9167C139.045 21.9167 145.519 28.7214 145.519 39.4899V42.0664L121.538 42.1986C122.132 46.5588 124.577 48.6068 129.069 48.6068C132.901 48.6068 135.61 47.2195 136.336 44.8411H145.651C144.462 52.1743 137.922 56.8649 128.871 56.8649ZM128.739 30.1748C124.709 30.1748 122.463 31.9585 121.67 35.9224H135.411C135.411 32.421 132.835 30.1748 128.739 30.1748Z" fill="white"/>
<path d="M174.27 22.9738V32.5531H171.033C165.219 32.5531 161.718 35.1296 161.718 41.67V56.006H151.544V23.0398H161.123L161.652 27.9286C163.039 24.6914 165.946 22.5113 170.372 22.5113C171.562 22.5113 172.883 22.6434 174.27 22.9738Z" fill="white"/>
<path d="M193.742 6.19336L197.325 12.6796L204.503 11.5091L201.793 18.4268L207.161 23.4535L200.199 25.5934L199.714 33.0321L193.742 28.7829L187.769 33.0321L187.285 25.5934L180.322 23.4535L185.69 18.4268L182.98 11.5091L190.158 12.6796L193.742 6.19336Z" fill="#1CCD83"/>
</svg>
